<?xml version="1.0" standalone="no"?>
<!DOCTYPE svg PUBLIC "-//W3C//DTD SVG 20010904//EN"
 "http://www.w3.org/TR/2001/REC-SVG-20010904/DTD/svg10.dtd">
<svg version="1.0" xmlns="http://www.w3.org/2000/svg"
 width="1500.000000pt" height="371.000000pt" viewBox="0 0 1500.000000 371.000000"
 preserveAspectRatio="xMidYMid meet">

<g transform="translate(0.000000,371.000000) scale(0.100000,-0.100000)"
fill="#000000" stroke="none">
<path d="M8710 1920 l0 -1180 270 0 270 0 0 1028 c0 566 -3 1097 -7 1180 l-6
152 -264 0 -263 0 0 -1180z m420 5 l0 -1065 -87 0 c-49 0 -118 -3 -155 -7
l-68 -6 0 1072 0 1071 155 0 155 0 0 -1065z"/>
<path d="M2725 3010 c-165 -22 -336 -112 -428 -225 -95 -118 -165 -293 -203
-510 -25 -139 -31 -555 -10 -721 50 -413 194 -661 450 -779 115 -53 147 -59
316 -59 119 -1 170 3 220 17 321 89 509 366 566 831 23 184 15 564 -15 722
-49 261 -137 446 -271 567 -142 128 -383 188 -625 157z m359 -136 c229 -75
361 -268 422 -619 34 -196 34 -576 -1 -774 -38 -222 -109 -377 -225 -492 -116
-115 -236 -159 -435 -159 -348 1 -562 218 -640 650 -23 126 -32 499 -16 652
36 345 137 573 301 678 138 89 424 120 594 64z"/>
<path d="M2763 2676 c-58 -14 -83 -29 -131 -77 -104 -103 -142 -297 -142 -730
0 -436 40 -638 147 -745 54 -55 108 -74 203 -75 150 -1 233 48 295 174 69 141
89 323 82 724 -5 303 -18 421 -59 531 -63 168 -211 242 -395 198z m167 -116
c20 -5 50 -24 67 -42 79 -81 103 -207 110 -563 10 -512 -38 -734 -170 -784
-40 -15 -132 -14 -172 3 -74 31 -123 150 -144 348 -14 123 -14 562 -1 688 17
163 55 279 104 319 43 36 138 50 206 31z"/>
<path d="M7335 3009 c-140 -11 -235 -34 -365 -87 -382 -155 -591 -527 -590
-1052 1 -566 253 -955 716 -1104 236 -76 584 -74 818 5 236 80 435 250 544
464 51 100 76 166 66 174 -9 8 -464 181 -476 181 -4 0 -25 -38 -47 -85 -76
-162 -167 -250 -312 -303 -64 -23 -89 -26 -184 -26 -123 0 -193 16 -288 67
-193 102 -298 392 -267 739 29 330 157 502 411 554 96 19 243 15 323 -11 154
-48 265 -154 306 -291 l12 -41 72 18 c236 62 422 112 428 115 19 12 -87 241
-152 328 -151 205 -393 326 -710 355 -127 12 -159 12 -305 0z m461 -137 c246
-54 419 -183 524 -391 17 -35 28 -67 23 -71 -9 -8 -234 -70 -254 -70 -8 0 -27
23 -44 51 -45 77 -128 153 -214 198 -115 60 -184 75 -336 75 -153 0 -221 -15
-337 -76 -191 -99 -308 -316 -326 -603 -15 -240 13 -427 88 -584 32 -67 56
-100 118 -160 90 -89 149 -123 264 -153 107 -28 292 -30 387 -5 149 40 289
146 361 275 19 34 40 70 46 79 9 14 25 10 144 -35 73 -28 135 -54 138 -57 3
-3 -5 -24 -18 -48 -111 -201 -259 -332 -458 -404 -255 -93 -639 -83 -879 23
-221 98 -395 294 -472 533 -52 161 -73 400 -52 594 46 421 241 689 584 801
200 65 489 77 713 28z"/>
<path d="M450 2954 c0 -37 -68 -1146 -75 -1221 l-6 -63 255 0 255 0 21 29 c28
41 119 90 182 101 69 10 160 -4 206 -34 93 -59 126 -131 126 -271 -1 -159 -45
-249 -148 -303 -44 -23 -63 -27 -141 -27 -78 0 -98 4 -140 26 -63 32 -109 92
-131 169 -16 59 -17 60 -53 60 -64 0 -483 -39 -489 -45 -15 -14 32 -185 74
-272 75 -155 188 -258 365 -331 118 -49 236 -65 414 -59 180 7 270 27 404 93
77 38 108 61 180 132 146 147 207 294 218 522 18 403 -175 691 -523 780 -137
35 -382 22 -476 -26 -15 -8 -31 -14 -35 -14 -6 0 9 330 16 347 1 2 202 4 448
5 436 3 448 4 452 23 2 10 0 106 -4 212 l-7 193 -694 0 -694 0 0 -26z m1280
-184 l0 -100 -447 -2 -448 -3 -22 -330 c-12 -181 -22 -345 -22 -363 l-1 -34
50 44 c166 142 230 168 415 168 185 0 300 -45 419 -163 127 -127 171 -249 171
-477 0 -229 -43 -348 -175 -481 -83 -84 -188 -144 -310 -176 -95 -26 -398 -25
-490 0 -208 58 -360 195 -420 380 -6 21 -10 41 -7 43 3 3 73 11 157 17 l153
13 27 -61 c55 -120 154 -181 311 -191 115 -8 202 14 279 71 123 90 180 265
151 468 -13 94 -47 164 -109 226 -58 58 -122 88 -209 101 -126 17 -272 -24
-350 -99 l-32 -31 -166 0 -167 0 6 63 c4 34 17 253 31 487 14 234 28 449 31
478 l5 52 585 0 584 0 0 -100z"/>
<path d="M4298 2462 c-186 -284 -394 -602 -463 -707 l-125 -190 0 -191 0 -191
143 -6 c78 -4 296 -7 485 -7 l342 0 0 -215 0 -215 260 0 260 0 0 215 0 215
145 0 145 0 0 215 0 215 -84 0 c-45 0 -111 3 -145 6 l-61 7 0 683 0 684 -282
0 -283 0 -337 -518z m790 -279 l2 -693 140 0 140 0 0 -100 0 -100 -140 0 -140
0 0 -215 0 -215 -145 0 -145 0 0 215 0 215 -490 0 -490 0 0 118 0 117 430 660
c237 363 437 668 445 678 14 16 33 17 203 15 l187 -3 3 -692z"/>
<path d="M4640 2463 c-35 -60 -188 -297 -340 -528 -152 -231 -280 -426 -284
-432 -6 -10 73 -13 382 -13 l389 0 7 463 c3 254 9 490 12 524 l6 62 -53 15
c-29 9 -53 16 -54 16 -1 0 -30 -48 -65 -107z m40 -518 l0 -345 -137 1 c-76 1
-177 4 -225 8 l-87 6 222 337 c122 186 223 338 225 338 1 0 2 -155 2 -345z"/>
<path d="M10148 2509 c-363 -53 -587 -276 -654 -648 -18 -104 -21 -345 -4
-456 43 -294 181 -502 405 -610 130 -63 187 -76 365 -82 198 -6 310 14 445 81
171 85 270 201 356 417 l18 47 -52 6 c-141 16 -447 38 -459 33 -8 -3 -20 -25
-27 -48 -16 -54 -73 -110 -128 -127 -101 -30 -217 -7 -275 54 -49 53 -98 187
-98 270 l0 24 519 0 c286 0 522 4 525 9 10 15 -13 315 -29 396 -22 103 -39
153 -86 247 -71 145 -154 236 -273 301 -147 82 -355 114 -548 86z m377 -133
c178 -57 308 -191 376 -388 34 -101 59 -237 59 -329 l0 -69 -520 0 -520 0 0
-92 c1 -228 82 -398 225 -469 40 -19 69 -25 147 -27 175 -7 253 32 343 170 9
14 26 15 135 6 69 -6 129 -14 134 -19 14 -13 -58 -112 -123 -170 -63 -56 -166
-110 -256 -135 -87 -24 -320 -30 -410 -11 -263 56 -429 215 -496 475 -63 249
-36 578 63 764 39 73 132 176 196 217 124 79 264 113 447 107 94 -3 138 -10
200 -30z"/>
<path d="M10228 2249 c-109 -16 -194 -78 -246 -181 -38 -74 -62 -177 -62 -265
l0 -63 375 0 375 0 0 44 c0 83 -30 218 -61 275 -37 69 -43 77 -98 123 -69 59
-171 83 -283 67z m180 -140 c57 -28 99 -81 122 -158 34 -109 46 -101 -152
-101 -95 0 -210 3 -255 7 l-82 6 6 31 c11 56 44 136 70 167 65 77 187 97 291
48z"/>
<path d="M11833 2510 c-105 -15 -184 -38 -269 -80 -174 -85 -279 -228 -319
-432 l-12 -67 51 -5 c98 -11 441 -28 476 -25 35 4 35 5 42 61 10 77 39 132 80
149 49 21 166 18 200 -5 50 -33 71 -81 76 -172 4 -81 4 -83 -19 -88 -13 -3
-118 -7 -234 -9 -175 -3 -223 -8 -290 -25 -300 -81 -445 -263 -445 -556 1
-279 139 -464 397 -531 132 -34 342 -11 465 51 65 33 157 104 187 145 l23 31
22 -49 c23 -49 83 -111 133 -136 113 -58 295 -61 491 -8 l42 12 0 170 0 171
-52 -8 c-79 -12 -119 -8 -142 16 -20 20 -21 32 -27 453 -5 273 -11 448 -19
477 -18 70 -83 201 -125 250 -79 95 -196 163 -335 195 -87 20 -305 28 -397 15z
m382 -124 c148 -40 262 -130 320 -252 47 -100 54 -174 55 -579 0 -302 3 -382
16 -430 24 -94 85 -145 174 -145 l41 0 -3 -57 -3 -58 -55 -13 c-34 -8 -96 -11
-161 -9 -94 3 -111 7 -153 31 -57 33 -84 82 -106 189 -8 42 -18 77 -22 77 -5
0 -25 0 -47 0 -36 0 -41 -4 -79 -62 -77 -118 -187 -199 -317 -233 -76 -19
-224 -19 -300 0 -126 33 -223 114 -267 223 -19 49 -22 76 -22 187 -1 113 2
138 22 187 48 118 135 196 273 242 105 35 204 46 412 46 100 0 206 3 236 7
l54 6 -7 121 c-9 168 -12 184 -44 246 -49 98 -164 150 -296 135 -119 -13 -191
-66 -228 -167 l-21 -58 -111 4 c-61 3 -132 5 -158 6 -59 0 -59 5 -13 98 74
147 219 238 430 272 85 13 308 5 380 -14z"/>
<path d="M12060 1610 c-225 -8 -277 -19 -346 -69 -22 -17 -53 -54 -69 -83 -24
-44 -30 -68 -33 -139 -7 -148 34 -239 133 -288 42 -21 57 -23 134 -19 103 6
174 35 249 103 58 52 115 155 137 246 15 65 21 260 8 257 -5 -1 -100 -5 -213
-8z m98 -187 c-12 -164 -145 -303 -290 -303 -93 0 -138 56 -138 170 0 160 57
197 309 199 l124 1 -5 -67z"/>
<path d="M13869 2506 c-93 -21 -199 -77 -270 -144 l-64 -60 -10 91 -10 92
-258 3 -257 2 7 -72 c5 -40 8 -434 8 -876 l0 -802 272 0 272 0 3 538 c3 523 4
538 25 594 61 160 171 235 304 207 96 -21 156 -102 178 -240 7 -38 11 -270 11
-581 l0 -518 271 0 271 0 -4 627 c-4 605 -5 631 -26 706 -56 202 -161 336
-318 402 -99 42 -288 56 -405 31z m289 -111 c86 -20 128 -44 189 -106 64 -65
97 -125 125 -226 21 -75 22 -100 26 -640 l3 -563 -94 0 c-52 0 -122 -3 -156
-6 l-61 -7 0 475 c0 522 -7 605 -57 706 -89 177 -292 228 -480 121 -64 -37
-103 -83 -148 -174 -61 -123 -65 -164 -65 -664 l0 -448 -152 -6 c-84 -3 -153
-5 -154 -4 -1 1 -4 345 -6 765 l-3 763 145 -3 145 -3 6 -130 c4 -71 7 -145 8
-162 1 -33 2 -33 50 -33 l50 0 48 91 c95 181 236 267 438 268 44 0 108 -6 143
-14z"/>
</g>
</svg>
