<?xml version="1.0" standalone="no"?>
<!DOCTYPE svg PUBLIC "-//W3C//DTD SVG 20010904//EN"
 "http://www.w3.org/TR/2001/REC-SVG-20010904/DTD/svg10.dtd">
<svg version="1.0" xmlns="http://www.w3.org/2000/svg"
 width="410.000000pt" height="120.000000pt" viewBox="0 0 410.000000 120.000000"
 preserveAspectRatio="xMidYMid meet">

<g transform="translate(0.000000,120.000000) scale(0.100000,-0.100000)"
fill="#000000" stroke="none">
<path d="M2683 878 l-43 -9 0 -60 0 -59 -50 0 -50 0 0 -50 0 -50 50 0 50 0 0
-137 c0 -153 6 -175 59 -210 25 -17 48 -23 90 -23 93 0 101 5 101 60 l0 48
-45 -6 c-35 -3 -50 0 -65 13 -18 16 -20 31 -20 137 l0 118 65 0 65 0 0 50 0
50 -65 0 -65 0 0 70 c0 78 2 76 -77 58z"/>
<path d="M248 724 c-82 -69 -148 -128 -147 -132 0 -4 67 -62 150 -130 l149
-124 27 33 c16 18 28 36 28 40 0 4 -48 46 -107 93 -60 48 -108 88 -108 91 0 3
193 163 219 182 4 3 -52 72 -59 72 -3 0 -71 -56 -152 -125z"/>
<path d="M3666 819 c-14 -17 -26 -34 -26 -38 0 -5 46 -46 103 -91 56 -46 106
-86 110 -90 5 -4 -41 -47 -102 -95 -61 -49 -111 -92 -111 -97 0 -4 12 -21 28
-38 l27 -31 140 116 c77 64 146 122 153 129 11 11 -13 35 -130 133 -79 65
-148 122 -155 126 -6 4 -22 -6 -37 -24z"/>
<path d="M823 736 c-41 -24 -43 -24 -43 -5 0 17 -7 19 -60 19 l-60 0 0 -234 0
-234 58 1 57 2 3 157 3 157 31 26 c27 23 39 26 85 23 l54 -3 -3 55 -3 55 -40
3 c-28 1 -53 -5 -82 -22z"/>
<path d="M1275 751 c-72 -18 -142 -77 -169 -143 -20 -46 -21 -138 -3 -181 53
-126 213 -184 342 -123 60 28 87 56 114 116 41 89 22 188 -49 261 -63 65 -149
91 -235 70z m142 -134 c31 -29 37 -41 40 -88 4 -45 1 -60 -19 -89 -74 -109
-228 -53 -228 83 0 44 4 53 39 88 34 34 44 39 85 39 39 0 52 -6 83 -33z"/>
<path d="M2159 751 c-48 -10 -102 -45 -119 -77 -8 -14 -15 -43 -15 -64 0 -82
50 -121 177 -141 86 -13 108 -23 108 -49 0 -52 -101 -66 -187 -26 l-52 25 -31
-39 -31 -39 23 -15 c67 -44 211 -60 285 -33 109 40 143 163 63 230 -30 26 -37
28 -150 48 -74 12 -100 24 -100 44 0 46 99 61 177 26 l42 -19 25 33 c14 19 26
38 26 44 0 14 -96 48 -155 54 -27 3 -66 2 -86 -2z"/>
<path d="M3165 750 c-22 -4 -59 -16 -82 -25 l-42 -17 21 -41 c11 -23 21 -43
22 -44 1 -1 31 7 66 18 104 32 170 7 170 -65 l0 -34 -37 10 c-50 14 -150 5
-191 -16 -97 -50 -92 -188 8 -238 43 -22 128 -23 177 -3 31 13 38 14 45 2 5
-10 26 -14 63 -14 l55 0 0 182 c0 172 -1 184 -22 215 -13 18 -40 42 -60 53
-43 22 -134 30 -193 17z m124 -276 c28 -6 31 -10 31 -45 0 -46 -21 -61 -89
-62 -62 -1 -91 16 -91 53 0 51 58 72 149 54z"/>
<path d="M1755 395 c-30 -30 -31 -54 -4 -89 28 -36 80 -36 108 0 12 15 21 35
21 46 0 27 -45 68 -75 68 -14 0 -37 -11 -50 -25z"/>
</g>
</svg>
